<?xml version="1.0" standalone="no"?>
<!DOCTYPE svg PUBLIC "-//W3C//DTD SVG 20010904//EN"
 "http://www.w3.org/TR/2001/REC-SVG-20010904/DTD/svg10.dtd">
<svg version="1.0" xmlns="http://www.w3.org/2000/svg"
 width="456.000000pt" height="146.000000pt" viewBox="0 0 456.000000 146.000000"
 preserveAspectRatio="xMidYMid meet">

<g transform="translate(0.000000,146.000000) scale(0.100000,-0.100000)"
fill="#000000" stroke="none">
<path d="M391 1228 c-44 -12 -78 -39 -109 -84 -18 -27 -26 -56 -32 -128 -9
-95 -27 -161 -62 -230 l-20 -38 81 3 c88 4 118 19 159 79 31 46 28 64 -11 78
-45 16 -77 52 -87 96 -11 51 -3 76 26 76 40 0 74 19 92 50 18 32 32 39 32 16
0 -25 59 -66 96 -66 33 0 34 -1 34 -42 0 -59 -30 -105 -85 -129 -42 -19 -44
-21 -34 -47 14 -37 58 -82 96 -98 18 -8 62 -14 97 -14 l65 0 -29 63 c-31 65
-50 144 -50 206 0 64 -21 114 -64 157 -57 58 -119 74 -195 52z"/>
<path d="M4056 1121 c-14 -5 -16 -10 -8 -15 14 -8 16 -86 3 -86 -6 0 -6 -13
-1 -32 5 -18 8 -54 7 -80 -2 -50 8 -71 23 -48 11 18 13 270 3 269 -5 0 -17 -4
-27 -8z"/>
<path d="M374 1049 c-10 -17 13 -36 27 -22 12 12 4 33 -11 33 -5 0 -12 -5 -16
-11z"/>
<path d="M494 1049 c-10 -17 13 -36 27 -22 12 12 4 33 -11 33 -5 0 -12 -5 -16
-11z"/>
<path d="M3940 998 c-39 -43 -19 -120 37 -139 19 -6 37 -8 40 -5 4 3 -1 6 -10
6 -38 0 -62 92 -37 141 15 26 -4 25 -30 -3z"/>
<path d="M426 961 c-7 -11 22 -23 35 -15 5 3 9 9 9 15 0 12 -37 12 -44 0z"/>
<path d="M4122 936 c-15 -33 -8 -44 45 -77 27 -17 34 -27 30 -45 -5 -27 5 -31
23 -9 20 24 4 60 -39 88 -23 15 -41 36 -43 49 -3 21 -4 21 -16 -6z"/>
<path d="M4205 950 c3 -5 8 -10 11 -10 2 0 4 5 4 10 0 6 -5 10 -11 10 -5 0 -7
-4 -4 -10z"/>
<path d="M440 838 c-1 -20 -41 -64 -80 -87 -28 -17 -51 -21 -116 -21 -61 0
-85 -4 -94 -15 -19 -23 -25 -156 -10 -211 7 -25 33 -72 56 -105 24 -32 47 -73
52 -91 l8 -33 175 -3 c197 -3 219 0 219 29 0 25 23 71 45 89 9 8 29 37 43 64
23 44 27 63 27 141 0 128 -5 135 -106 135 -97 0 -146 21 -185 80 -29 43 -34
47 -34 28z m28 -81 c2 -12 -3 -17 -17 -17 -12 0 -21 6 -21 13 0 31 32 34 38 4z
m-74 -72 c-18 -28 -52 -50 -62 -41 -8 9 49 66 65 66 10 0 10 -6 -3 -25z m71
-6 c4 -17 4 -51 0 -75 -10 -72 -35 -51 -35 31 0 74 22 102 35 44z m80 0 c14
-17 24 -34 21 -37 -8 -8 -54 26 -66 48 -18 33 14 25 45 -11z"/>
<path d="M910 505 l0 -235 161 0 c221 0 249 15 249 135 0 69 -12 101 -48 123
-25 14 -27 19 -16 30 14 13 19 106 8 137 -14 36 -58 45 -209 45 l-145 0 0
-235z m223 111 c3 -8 3 -24 0 -35 -4 -16 -13 -21 -39 -21 -32 0 -34 2 -34 35
0 33 2 35 34 35 20 0 36 -6 39 -14z m25 -193 c-3 -38 -3 -38 -50 -41 l-48 -3
0 40 0 41 51 0 50 0 -3 -37z"/>
<path d="M1462 727 c-6 -6 -28 -57 -49 -112 -36 -96 -38 -105 -38 -220 l0
-120 72 -3 72 -3 3 58 3 58 52 3 52 3 3 -58 3 -58 75 0 75 0 -1 125 c0 123 -1
127 -43 233 l-42 107 -114 0 c-78 0 -116 -4 -123 -13z m142 -154 c23 -68 22
-73 -22 -73 -21 0 -41 3 -45 6 -5 5 3 32 28 102 9 24 23 11 39 -35z"/>
<path d="M1865 728 c-3 -7 -4 -112 -3 -233 l3 -220 145 -3 c171 -3 204 1 236
33 21 21 24 33 24 100 0 85 -10 112 -46 125 -24 9 -24 11 -10 32 25 36 21 111
-8 145 l-24 28 -156 3 c-124 3 -157 1 -161 -10z m220 -133 c0 -27 -4 -30 -32
-33 -32 -3 -33 -2 -33 33 0 35 1 36 33 33 28 -3 32 -6 32 -33z m30 -175 c0
-35 0 -35 -47 -38 l-48 -3 0 41 0 41 48 -3 c47 -3 47 -3 47 -38z"/>
<path d="M2334 725 c-3 -8 -4 -97 -2 -199 3 -202 5 -207 73 -244 46 -25 227
-23 279 2 61 30 67 56 64 269 l-3 182 -75 0 -75 0 -5 -170 -5 -170 -33 -3
c-59 -6 -62 3 -62 184 l0 164 -75 0 c-57 0 -77 -4 -81 -15z"/>
<path d="M2874 724 c-46 -23 -55 -48 -52 -143 3 -78 5 -85 30 -104 16 -12 57
-25 100 -31 63 -9 73 -14 73 -31 0 -19 -8 -20 -102 -23 l-103 -3 0 -59 0 -60
138 0 c200 0 232 21 232 153 0 38 -5 77 -10 88 -16 28 -62 49 -130 56 -59 6
-92 25 -74 43 5 5 50 10 99 12 l90 3 0 55 0 55 -130 2 c-101 2 -137 -1 -161
-13z"/>
<path d="M3340 733 c-82 -26 -90 -48 -90 -234 l0 -151 33 -33 c40 -40 80 -48
217 -43 l95 3 3 58 3 57 -80 0 c-116 0 -111 -5 -111 115 0 120 -5 115 111 115
l79 0 0 60 0 60 -122 -1 c-68 0 -130 -3 -138 -6z"/>
<path d="M3733 703 c-65 -157 -73 -191 -73 -314 l0 -120 73 3 72 3 3 58 3 58
52 -3 52 -3 5 -55 5 -55 73 -3 72 -3 0 120 c0 112 -2 127 -34 215 -54 148 -38
136 -172 136 l-115 0 -16 -37z m159 -139 c9 -27 17 -52 17 -56 1 -5 -19 -8
-44 -8 -25 0 -45 4 -45 8 0 29 33 113 43 109 7 -2 20 -26 29 -53z"/>
</g>
</svg>
